<svg width="360" height="48" viewBox="0 0 360 48" fill="none" xmlns="http://www.w3.org/2000/svg">
<path fill-rule="evenodd" clip-rule="evenodd" d="M0 0V48H360V0H0Z" fill="black"/>
<path d="M274 18C274 17.4477 274.448 17 275 17H287C287.552 17 288 17.4477 288 18V30C288 30.5523 287.552 31 287 31H275C274.448 31 274 30.5523 274 30V18Z" stroke="white" stroke-width="2"/>
<path d="M187 24C187 27.866 183.866 31 180 31C176.134 31 173 27.866 173 24C173 20.134 176.134 17 180 17C183.866 17 187 20.134 187 24Z" stroke="white" stroke-width="2"/>
<path d="M84.4995 16.849C85.1662 16.4636 86 16.9447 86 17.7147V29.2872C86 30.0572 85.1662 30.5383 84.4995 30.1529L74.4904 24.3667C73.8244 23.9817 73.8244 23.0202 74.4904 22.6352L84.4995 16.849Z" stroke="white" stroke-width="2"/>
</svg>
